<svg xmlns="http://www.w3.org/2000/svg" viewBox="0 0 2279 1080"><path fill="none" stroke="#989A9D" stroke-width="16" stroke-miterlimit="10" d="M1016.1 699.3l-18.9 380.5M1147.7 699v381m-18.3-380l-38.5 379"/><path fill="none" stroke="#7CCFF4" stroke-width="32" stroke-miterlimit="10" d="M1185.8 699v381"/><path fill="none" stroke="#989A9D" stroke-width="16" stroke-miterlimit="10" d="M1281.2 699v381M1053.2 699v381m260.7-381v381M1346.6 699v381"/><path fill="#EA8523" d="M1211.3 663.8c-4.2 27.4 4.5 45.2 12.7 71.4 14.4 46-1.9 87.1-7.5 132.7-3.2 26.4-1.7 50.2 7.5 75.3 16.6 45.6 22.2 84.2 21 132.9-.4 16 12.8 8 13.1-3.7.8-29.6 1.7-59.5-3.7-88.7-8.5-46-31.4-77.8-23.4-127.5 4.9-30.8 14.6-61.1 13.6-92.7-1-32.9-25.9-64.6-21-97 2-14.2-10.1-17.2-12.3-2.7"/><path fill="#9BCA3B" d="M1199.5 620.2c-14.1-9.1-28.3-20.8-33.2-37.8-5.3-18.5 6.1-35.9 11-52.7 6.9-23.8 7.6-47.6 4.2-72-2.2-15.5-15.5-.4-14.1 9.4 4.1 28.9-2 52.1-11.2 79.1-3.4 10-6.5 19.7-6.2 30.5.6 28.4 18.1 50.6 41.1 65.4 8.7 5.6 15.8-17.1 8.4-21.9"/><path fill="#9BCA3B" d="M1168.5 471.1c5.7 28.7 17.6 52.7 37.6 74.3 23.2 25 60.4 54 54.3 93.1 1.8-4.7 3.5-9.3 5.3-14l-7.2 2.4c-5.3-.5-8.9 23.1-5 23.5 23.9 2.1 14.5-47.6 11.2-57.9-7.6-23.7-23.4-40-40.2-57.4-24.4-25.1-41.3-48.3-48.4-83.6-1.1-5.3-8.6 14.3-7.6 19.6"/><path fill="#9BCA3B" d="M1176.6 535c6.3 31.5 13.9 63.1 39.4 84.8 8.3 7 16.4-15.4 8.8-21.8-21.6-18.3-27.5-45.6-32.8-72.1-3-15.4-17.5-1.6-15.4 9.1"/><path fill="#9BCA3B" d="M1169.6 566.1c14.8 3.7 29.5 1.8 43-5.4 1.7-.9 2.1-6.7-.4-5.4-12.9 6.9-27.2 8.5-41.3 5-2.1-.6-3.4 5.3-1.3 5.8M1170.8 590.4c17 4.6 36.3 7.1 49.3-7.5 1-1.1 1.3-6.7 0-5.3-12.6 14.2-31.6 11.4-48 6.9-1.5-.4-2.9 5.4-1.3 5.9M1201 619.9c6.3 1 12.8 1.9 19.2.6 3.2-.6 6.1-1.9 8.8-3.8 3.2-2.2 5.5-5.3 9.8-4.7 1.7.2 2.8-5.6 1.3-5.9-6.2-.9-9.8 5.3-15.1 7.4-7.1 2.8-15.2 1.6-22.6.5-1.9-.2-3 5.6-1.4 5.9"/></svg>