<?xml version="1.0" encoding="utf-8"?>
<!-- Generator: Adobe Illustrator 17.1.0, SVG Export Plug-In . SVG Version: 6.00 Build 0)  -->
<!DOCTYPE svg PUBLIC "-//W3C//DTD SVG 1.1//EN" "http://www.w3.org/Graphics/SVG/1.1/DTD/svg11.dtd">
<svg version="1.1" id="Layer_1" xmlns="http://www.w3.org/2000/svg" xmlns:xlink="http://www.w3.org/1999/xlink" x="0px" y="0px"
	 viewBox="0 0 2279 1080" enable-background="new 0 0 2279 1080" xml:space="preserve">
<line fill="none" stroke="#989A9D" stroke-width="16" stroke-miterlimit="10" x1="1016.1" y1="699.3" x2="997.2" y2="1079.8"/>
<path fill="none" stroke="#989A9D" stroke-width="16" stroke-miterlimit="10" d="M1147.7,699v381 M1129.4,700l-38.5,379"/>
<line fill="none" stroke="#7CCFF4" stroke-width="32" stroke-miterlimit="10" x1="1185.8" y1="699" x2="1185.8" y2="1080"/>
<line fill="none" stroke="#989A9D" stroke-width="16" stroke-miterlimit="10" x1="1281.2" y1="699" x2="1281.2" y2="1080"/>
<path fill="none" stroke="#989A9D" stroke-width="16" stroke-miterlimit="10" d="M1053.2,699v381 M1313.9,699v381"/>
<line fill="none" stroke="#989A9D" stroke-width="16" stroke-miterlimit="10" x1="1346.6" y1="699" x2="1346.6" y2="1080"/>
<path fill="#EA8523" d="M1211.3,663.8c-4.2,27.4,4.5,45.2,12.7,71.4c14.4,46-1.9,87.1-7.5,132.7c-3.2,26.4-1.7,50.2,7.5,75.3
	c16.6,45.6,22.2,84.2,21,132.9c-0.4,16,12.8,8,13.1-3.7c0.8-29.6,1.7-59.5-3.7-88.7c-8.5-46-31.4-77.8-23.4-127.5
	c4.9-30.8,14.6-61.1,13.6-92.7c-1-32.9-25.9-64.6-21-97C1225.6,652.3,1213.5,649.3,1211.3,663.8"/>
<path fill="#9BCA3B" d="M1199.5,620.2c-14.1-9.1-28.3-20.8-33.2-37.8c-5.3-18.5,6.1-35.9,11-52.7c6.9-23.8,7.6-47.6,4.2-72
	c-2.2-15.5-15.5-0.4-14.1,9.4c4.1,28.9-2,52.1-11.2,79.1c-3.4,10-6.5,19.7-6.2,30.5c0.6,28.4,18.1,50.6,41.1,65.4
	C1199.8,647.7,1206.9,625,1199.5,620.2"/>
<path fill="#9BCA3B" d="M1168.5,471.1c5.7,28.7,17.6,52.7,37.6,74.3c23.2,25,60.4,54,54.3,93.1c1.8-4.7,3.5-9.3,5.3-14
	c-2.4,0.8-4.8,1.6-7.2,2.4c-5.3-0.5-8.9,23.1-5,23.5c23.9,2.1,14.5-47.6,11.2-57.9c-7.6-23.7-23.4-40-40.2-57.4
	c-24.4-25.1-41.3-48.3-48.4-83.6C1175,446.2,1167.5,465.8,1168.5,471.1"/>
<path fill="#9BCA3B" d="M1176.6,535c6.3,31.5,13.9,63.1,39.4,84.8c8.3,7,16.4-15.4,8.8-21.8c-21.6-18.3-27.5-45.6-32.8-72.1
	C1189,510.5,1174.5,524.3,1176.6,535"/>
<path fill="#9BCA3B" d="M1169.6,566.1c14.8,3.7,29.5,1.8,43-5.4c1.7-0.9,2.1-6.7-0.4-5.4c-12.9,6.9-27.2,8.5-41.3,5
	C1168.8,559.7,1167.5,565.6,1169.6,566.1"/>
<path fill="#9BCA3B" d="M1170.8,590.4c17,4.6,36.3,7.1,49.3-7.5c1-1.1,1.3-6.7,0-5.3c-12.6,14.2-31.6,11.4-48,6.9
	C1170.6,584.1,1169.2,589.9,1170.8,590.4"/>
<path fill="#9BCA3B" d="M1201,619.9c6.3,1,12.8,1.9,19.2,0.6c3.2-0.6,6.1-1.9,8.8-3.8c3.2-2.2,5.5-5.3,9.8-4.7
	c1.7,0.2,2.8-5.6,1.3-5.9c-6.2-0.9-9.8,5.3-15.1,7.4c-7.1,2.8-15.2,1.6-22.6,0.5C1200.5,613.8,1199.4,619.6,1201,619.9"/>
</svg>
