<svg xmlns="http://www.w3.org/2000/svg" viewBox="0 0 150 150"><path fill="#7DCFF4" d="M74.9 1.1c41.9 2.8 67.3 27.6 64.1 60.1-1.6 23.6-10.5 41.4-25.5 53.1-9.1 8.1-23.1 20.6-38.6 34.5l-37.7-34.5C20.8 100.5 12 82.6 10.7 60.6 14 28 30.8 5 74.9 1.1z"/><path fill="#FFF" d="M75.4 93.9c-6.5-4.2-13-9.5-15.2-17.3-2.4-8.5 2.8-16.4 5-24.1 3.2-10.9 3.5-21.8 1.9-32.9-1-7.1-7.1-.2-6.4 4.3 1.9 13.2-.9 23.8-5.1 36.2-1.6 4.6-3 9-2.9 13.9.3 13 8.3 23.2 18.8 29.9 4 2.6 7.3-7.8 3.9-10"/><path fill="#FFF" d="M61.2 25.7c2.6 13.1 8 24.1 17.2 34C89 71.2 106 84.4 103.2 102.3c.8-2.1 1.6-4.3 2.4-6.4-1.1.4-2.2.7-3.3 1.1-2.4-.2-4.1 10.6-2.3 10.7 10.9 1 6.6-21.8 5.1-26.5-3.4-10.8-10.6-18.3-18.3-26.2-11.2-11.5-18.9-22.1-22.2-38.2-.4-2.5-3.9 6.5-3.4 8.9"/><path fill="#FFF" d="M64.9 55c2.9 14.4 6.3 28.9 18 38.8 3.8 3.2 7.5-7 4-10-9.9-8.4-12.6-20.8-15-33-1.3-7.1-8-.8-7 4.2M61.7 69.2c6.8 1.7 13.5.8 19.7-2.5M84.8 74.4c-5.8 6.5-14.4 5.2-22 3.2M76.1 93.8c2.9.4 5.9.8 8.8.3"/></svg>