<?xml version="1.0" encoding="utf-8"?>
<!-- Generator: Adobe Illustrator 17.1.0, SVG Export Plug-In . SVG Version: 6.00 Build 0)  -->
<!DOCTYPE svg PUBLIC "-//W3C//DTD SVG 1.1//EN" "http://www.w3.org/Graphics/SVG/1.1/DTD/svg11.dtd">
<svg version="1.1" id="Layer_1" xmlns="http://www.w3.org/2000/svg" xmlns:xlink="http://www.w3.org/1999/xlink" x="0px" y="0px"
	 viewBox="0 0 150 150" enable-background="new 0 0 150 150" xml:space="preserve">
<path fill="#7DCFF4" d="M74.9,1.1c41.9,2.8,67.3,27.6,64.1,60.1c-1.6,23.6-10.5,41.4-25.5,53.1c-9.1,8.1-23.1,20.6-38.6,34.5
	l-37.7-34.5C20.8,100.5,12,82.6,10.7,60.6C14,28,30.8,5,74.9,1.1z"/>
<path fill="#FFFFFF" d="M75.4,93.9c-6.5-4.2-13-9.5-15.2-17.3c-2.4-8.5,2.8-16.4,5-24.1c3.2-10.9,3.5-21.8,1.9-32.9
	c-1-7.1-7.1-0.2-6.4,4.3c1.9,13.2-0.9,23.8-5.1,36.2c-1.6,4.6-3,9-2.9,13.9C53,87,61,97.2,71.5,103.9
	C75.5,106.5,78.8,96.1,75.4,93.9"/>
<path fill="#FFFFFF" d="M61.2,25.7c2.6,13.1,8,24.1,17.2,34C89,71.2,106,84.4,103.2,102.3c0.8-2.1,1.6-4.3,2.4-6.4
	c-1.1,0.4-2.2,0.7-3.3,1.1c-2.4-0.2-4.1,10.6-2.3,10.7c10.9,1,6.6-21.8,5.1-26.5C101.7,70.4,94.5,62.9,86.8,55
	C75.6,43.5,67.9,32.9,64.6,16.8C64.2,14.3,60.7,23.3,61.2,25.7"/>
<path fill="#FFFFFF" d="M64.9,55c2.9,14.4,6.3,28.9,18,38.8c3.8,3.2,7.5-7,4-10c-9.9-8.4-12.6-20.8-15-33C70.6,43.7,63.9,50,64.9,55
	"/>
<path fill="#FFFFFF" d="M61.7,69.2c6.8,1.7,13.5,0.8,19.7-2.5"/>
<path fill="#FFFFFF" d="M84.8,74.4c-5.8,6.5-14.4,5.2-22,3.2"/>
<path fill="#FFFFFF" d="M76.1,93.8c2.9,0.4,5.9,0.8,8.8,0.3"/>
</svg>
